# xmcd
#
# Track frame offsets:
# 150
# 19431
# 38098
# 63669
# 76825
# 96567
# 113625
# 134701
# 145452
# 154452
# 187046
# 225746
# 243682
#
# Disc length: 3909 seconds
#
#
# Revision: 1
# Processed by: cddbd v1.5.1PL0 Copyright (c) Steve Scherf et al.
# Submitted via: FreeRIP 2.93 
#
DISCID=c40f430d
DTITLE=Earl Hines - Jazz and dintorni - Vol. 49
DYEAR=1900
DGENRE=Jazz
TTITLE0=Jitterburg Waltz
TTITLE1=Ain't Misbehavin'
TTITLE2=Honeysuckle Rose
TTITLE3=Piano Man
TTITLE4=Black and Blue
TTITLE5=Blues for Tatum
TTITLE6=West End Blues
TTITLE7=Clarinet Marmalade
TTITLE8=Do You Know What It Means to Miss New Orleans
TTITLE9=Take The 'A' Train
TTITLE10=Sweet Georgia Brown
TTITLE11=The Man I Love
TTITLE12=C-Jam Blues
EXTD=
EXTT0=
EXTT1=
EXTT2=
EXTT3=
EXTT4=
EXTT5=
EXTT6=
EXTT7=
EXTT8=
EXTT9=
EXTT10=
EXTT11=
EXTT12=
PLAYORDER=
